<svg width="83" height="83" viewBox="0 0 83 83" fill="none" xmlns="http://www.w3.org/2000/svg">
<path d="M55.4033 32.4779L42.1152 82.679H0V47.5218L45.9346 29.93L48.4287 29.6878L55.4033 32.4779Z" fill="url(#paint0_linear_13_21)" stroke="url(#paint1_linear_13_21)"/>
<path d="M52.9449 3.2415C53.7627 2.04291 55.5446 2.08667 56.3025 3.32396L60.1694 9.63654C60.6369 10.3997 61.5544 10.7593 62.4159 10.5172L69.5427 8.51457C70.9396 8.12204 72.2765 9.30094 72.0617 10.7359L70.9663 18.0573C70.8339 18.9423 71.3055 19.8076 72.1211 20.176L78.8679 23.2228C80.1902 23.82 80.4566 25.5824 79.3697 26.5437L73.8245 31.448C73.1541 32.0409 72.9592 33.0069 73.3473 33.8133L76.5571 40.4841C77.1862 41.7916 76.2574 43.3128 74.8069 43.3506L67.4066 43.5431C66.512 43.5664 65.7417 44.1812 65.5206 45.0483L63.6916 52.2216C63.3331 53.6276 61.6437 54.1959 60.5083 53.2925L54.7156 48.6832C54.0153 48.126 53.0301 48.1018 52.3033 48.6239L46.2913 52.9433C45.1129 53.7899 43.4534 53.1394 43.1644 51.7175L41.6897 44.463C41.5115 43.5861 40.7723 42.9343 39.8799 42.8671L32.498 42.3115C31.0511 42.2026 30.1981 40.6376 30.8906 39.3625L34.424 32.8574C34.8512 32.071 34.7039 31.0966 34.0635 30.4715L28.7657 25.3009C27.7273 24.2874 28.0799 22.5402 29.43 22.0086L36.3181 19.2966C37.1508 18.9688 37.6644 18.1277 37.5756 17.2372L36.8409 9.87093C36.6968 8.42712 38.09 7.31527 39.4659 7.7759L46.4858 10.126C47.3344 10.4101 48.2685 10.0959 48.7728 9.35664L52.9449 3.2415Z" fill="#E5EB2B"/>
<path d="M62.3912 16.6255C63.9512 15.88 65.6583 17.3315 65.1733 18.9911L58.7825 40.8608C58.376 42.2518 56.6713 42.7622 55.5673 41.8235L41.4006 29.7781C40.2966 28.8394 40.5262 27.0748 41.8337 26.4499L62.3912 16.6255Z" fill="url(#paint2_linear_13_21)"/>
<path d="M27.923 43.2385C28.1212 42.7028 28.8788 42.7028 29.077 43.2385C29.1394 43.4069 29.2721 43.5397 29.4406 43.602C29.9762 43.8002 29.9762 44.5578 29.4406 44.7561C29.2721 44.8184 29.1394 44.9512 29.077 45.1196C28.8788 45.6553 28.1212 45.6553 27.923 45.1196C27.8606 44.9512 27.7279 44.8184 27.5594 44.7561C27.0238 44.5578 27.0238 43.8002 27.5594 43.602C27.7279 43.5397 27.8606 43.4069 27.923 43.2385Z" fill="white" fill-opacity="0.72"/>
<path d="M43.5 53.679L44.327 55.7016L45.6651 57.429L43.5 57.1339L41.3349 57.429L42.673 55.7016L43.5 53.679Z" fill="white" fill-opacity="0.72"/>
<path d="M34.2059 60.0668C34.3536 59.872 34.6464 59.872 34.7941 60.0668L35.1164 60.4916C35.1367 60.5184 35.1606 60.5423 35.1874 60.5627L35.6122 60.8849C35.807 61.0326 35.807 61.3254 35.6122 61.4732L35.1874 61.7954C35.1606 61.8157 35.1367 61.8396 35.1164 61.8664L34.7941 62.2912C34.6464 62.486 34.3536 62.486 34.2059 62.2912L33.8836 61.8664C33.8633 61.8396 33.8394 61.8157 33.8126 61.7954L33.3878 61.4732C33.193 61.3254 33.193 61.0326 33.3878 60.8849L33.8126 60.5627C33.8394 60.5423 33.8633 60.5184 33.8836 60.4916L34.2059 60.0668Z" fill="white" fill-opacity="0.72"/>
<path d="M20.5 49.679L21.1752 51.5038L23 52.179L21.1752 52.8543L20.5 54.679L19.8248 52.8543L18 52.179L19.8248 51.5038L20.5 49.679Z" fill="white" fill-opacity="0.72"/>
<path d="M34 49.679L34.5402 51.1388L36 51.679L34.5402 52.2192L34 53.679L33.4598 52.2192L32 51.679L33.4598 51.1388L34 49.679Z" fill="white" fill-opacity="0.72"/>
<path d="M29.923 69.2385C30.1212 68.7028 30.8788 68.7028 31.077 69.2385C31.1394 69.4069 31.2721 69.5397 31.4406 69.602C31.9762 69.8002 31.9762 70.5578 31.4406 70.7561C31.2721 70.8184 31.1394 70.9512 31.077 71.1196C30.8788 71.6553 30.1212 71.6553 29.923 71.1196C29.8606 70.9512 29.7279 70.8184 29.5594 70.7561C29.0238 70.5578 29.0238 69.8002 29.5594 69.602C29.7279 69.5397 29.8606 69.4069 29.923 69.2385Z" fill="white" fill-opacity="0.72"/>
<path d="M6.92296 57.2385C7.12117 56.7028 7.87883 56.7028 8.07704 57.2385C8.13936 57.4069 8.27215 57.5397 8.44056 57.602C8.97624 57.8002 8.97624 58.5578 8.44056 58.7561C8.27215 58.8184 8.13936 58.9512 8.07704 59.1196C7.87883 59.6553 7.12117 59.6553 6.92296 59.1196C6.86064 58.9512 6.72785 58.8184 6.55944 58.7561C6.02376 58.5578 6.02376 57.8002 6.55944 57.602C6.72785 57.5397 6.86064 57.4069 6.92296 57.2385Z" fill="white" fill-opacity="0.72"/>
<path d="M19.5 62.679L20.1752 64.5038L22 65.179L20.1752 65.8543L19.5 67.679L18.8248 65.8543L17 65.179L18.8248 64.5038L19.5 62.679Z" fill="white" fill-opacity="0.72"/>
<path d="M24.5 80.679L25.1752 82.5038L27 83.179L25.1752 83.8543L24.5 85.679L23.8248 83.8543L22 83.179L23.8248 82.5038L24.5 80.679Z" fill="white" fill-opacity="0.72"/>
<path d="M2.5 69.679L3.17523 71.5038L5 72.179L3.17523 72.8543L2.5 74.679L1.82477 72.8543L0 72.179L1.82477 71.5038L2.5 69.679Z" fill="white" fill-opacity="0.72"/>
<path d="M25.923 58.2385C26.1212 57.7028 26.8788 57.7028 27.077 58.2385C27.1394 58.4069 27.2721 58.5397 27.4406 58.602C27.9762 58.8002 27.9762 59.5578 27.4406 59.7561C27.2721 59.8184 27.1394 59.9512 27.077 60.1196C26.8788 60.6553 26.1212 60.6553 25.923 60.1196C25.8606 59.9512 25.7279 59.8184 25.5594 59.7561C25.0238 59.5578 25.0238 58.8002 25.5594 58.602C25.7279 58.5397 25.8606 58.4069 25.923 58.2385Z" fill="white" fill-opacity="0.72"/>
<path d="M40.923 66.2385C41.1212 65.7028 41.8788 65.7028 42.077 66.2385C42.1394 66.4069 42.2721 66.5397 42.4406 66.602C42.9762 66.8002 42.9762 67.5578 42.4406 67.7561C42.2721 67.8184 42.1394 67.9512 42.077 68.1196C41.8788 68.6553 41.1212 68.6553 40.923 68.1196C40.8606 67.9512 40.7279 67.8184 40.5594 67.7561C40.0238 67.5578 40.0238 66.8002 40.5594 66.602C40.7279 66.5397 40.8606 66.4069 40.923 66.2385Z" fill="white" fill-opacity="0.72"/>
<defs>
<linearGradient id="paint0_linear_13_21" x1="58.2303" y1="27.1021" x2="38.2886" y2="50.6154" gradientUnits="userSpaceOnUse">
<stop stop-color="#758AEF"/>
<stop offset="1" stop-color="#434F89"/>
</linearGradient>
<linearGradient id="paint1_linear_13_21" x1="27.75" y1="29.179" x2="27.75" y2="83.179" gradientUnits="userSpaceOnUse">
<stop stop-color="#758AEF"/>
<stop offset="1" stop-color="#434F89"/>
</linearGradient>
<linearGradient id="paint2_linear_13_21" x1="74.5" y1="4.67902" x2="44" y2="41.179" gradientUnits="userSpaceOnUse">
<stop stop-color="#758AEF"/>
<stop offset="1" stop-color="#062362"/>
</linearGradient>
</defs>
</svg>
